<?xml version="1.0" encoding="UTF-8"?>
<svg id="Layer_1" data-name="Layer 1" xmlns="http://www.w3.org/2000/svg" viewBox="0 0 977.13 777.92">
  <defs>
    <style>
      .cls-1 {
        fill: #e89e1c;
      }
    </style>
  </defs>
  <path class="cls-1" d="M0,338.87h199.74c17.72,0,33.7,2.69,47.92,8.04,14.22,5.36,26.28,12.78,36.18,22.26,9.89,9.49,17.41,21.13,22.57,34.94,5.15,13.82,7.73,28.97,7.73,45.45s-2.17,30.41-6.49,41.74c-4.33,11.34-10.11,20.72-17.31,28.14-7.22,7.42-15.46,12.99-24.74,16.7-9.28,3.71-18.86,5.78-28.75,6.18v3.71c9.48,0,19.68,1.85,30.61,5.56,10.92,3.71,21.03,9.58,30.3,17.63,9.28,8.04,17.01,18.35,23.19,30.92,6.18,12.58,9.28,28.13,9.28,46.69,0,17.31-2.78,33.5-8.35,48.54-5.57,15.05-13.3,28.13-23.19,39.27-9.9,11.13-21.64,19.9-35.25,26.28-13.6,6.4-28.45,9.58-44.52,9.58H0v-431.63ZM81.63,518.82h100.8c14.84,0,26.38-4.02,34.63-12.06,8.24-8.04,12.37-19.27,12.37-33.7v-19.17c0-14.42-4.13-25.66-12.37-33.7-8.25-8.04-19.79-12.06-34.63-12.06h-100.8v110.69ZM81.63,701.24h113.78c15.66,0,27.83-4.02,36.48-12.06,8.66-8.04,12.99-19.68,12.99-34.94v-21.03c0-15.25-4.33-27-12.99-35.25-8.66-8.24-20.82-12.37-36.48-12.37h-113.78v115.64Z"/>
  <rect class="cls-1" x="366.09" y="447.7" width="79.15" height="322.8"/>
  <path class="cls-1" d="M452.04,348.76v12.36c0,11.55-3.71,21.03-11.13,28.45-7.42,7.42-19.17,11.13-35.25,11.13s-28.35-3.71-35.55-11.13c-7.22-7.42-10.83-16.9-10.83-28.45v-12.36c0-11.54,3.61-21.03,10.83-28.45,7.2-7.42,19.06-11.13,35.55-11.13s27.83,3.71,35.25,11.13c7.42,7.42,11.13,16.91,11.13,28.45Z"/>
  <path class="cls-1" d="M598.6,770.5c-27.21,0-47.93-7.09-62.15-21.28-14.22-14.19-21.33-34.45-21.33-60.78v-177.05h-47.61v-63.69h24.74c11.95,0,20.1-2.78,24.43-8.35,4.33-5.56,6.49-13.91,6.49-25.04v-55.04h71.11v88.43h66.17v63.69h-66.17v195.41h61.22v63.69h-56.89Z"/>
  <path class="cls-1" d="M818.13,777.92c-23.91,0-45.25-4.02-64-12.06-18.76-8.04-34.63-19.37-47.62-34.01-12.99-14.63-22.99-32.36-29.99-53.18-7.01-20.81-10.51-44.21-10.51-70.19s3.4-48.64,10.2-69.26c6.8-20.61,16.59-38.24,29.37-52.87,12.77-14.63,28.45-25.97,47-34.01,18.55-8.04,39.58-12.06,63.07-12.06,25.14,0,47,4.33,65.55,12.99,18.55,8.66,33.8,20.41,45.76,35.25,11.95,14.84,20.92,32.06,26.9,51.64,5.97,19.59,8.97,40.5,8.97,62.77v25.97h-214.58v7.98c0,23.33,6.59,42.06,19.79,56.17,13.19,14.13,32.77,21.18,58.75,21.18,19.79,0,35.96-4.09,48.54-12.27,12.57-8.18,23.81-18.62,33.7-31.32l42.67,47.75c-13.2,18.61-31.23,33.18-54.11,43.72-22.88,10.53-49.37,15.81-79.46,15.81ZM816.89,499.65c-21.03,0-37.72,7.01-50.09,21.02-12.37,14.02-18.55,32.16-18.55,54.42v4.95h132.33v-5.56c0-22.26-5.47-40.29-16.39-54.11-10.93-13.81-26.7-20.72-47.31-20.72Z"/>
  <path class="cls-1" d="M211.52,287.16H0v-47.72L146,52.17H7.28V4.85h200.2v47.72L61.07,239.84h150.45v47.32Z"/>
  <path class="cls-1" d="M338.52,292.01c-18.6,0-35.46-3.1-50.55-9.3-15.1-6.2-27.98-15.5-38.63-27.91-10.65-12.4-18.94-27.63-24.87-45.7-5.94-18.06-8.9-39.09-8.9-63.09s2.96-44.69,8.9-62.89c5.93-18.2,14.22-33.5,24.87-45.9,10.65-12.4,23.52-21.7,38.63-27.91,15.1-6.2,31.95-9.3,50.55-9.3s35.45,3.1,50.56,9.3c15.1,6.21,28.04,15.51,38.83,27.91,10.78,12.4,19.07,27.7,24.87,45.9,5.8,18.2,8.69,39.17,8.69,62.89s-2.9,45.03-8.69,63.09c-5.8,18.07-14.09,33.3-24.87,45.7-10.79,12.41-23.73,21.71-38.83,27.91-15.1,6.2-31.95,9.3-50.56,9.3ZM338.52,244.69c20.22,0,36.33-6.74,48.33-20.22,12-13.48,18-32.36,18-56.62v-43.68c0-24.27-6-43.14-18-56.62-12-13.48-28.11-20.22-48.33-20.22s-36.33,6.74-48.33,20.22c-12,13.49-18,32.36-18,56.62v43.68c0,24.27,6,43.14,18,56.62,12,13.49,28.11,20.22,48.33,20.22Z"/>
  <path class="cls-1" d="M601,292.01c-18.6,0-35.46-3.1-50.55-9.3-15.1-6.2-27.98-15.5-38.63-27.91-10.65-12.4-18.94-27.63-24.87-45.7-5.94-18.06-8.9-39.09-8.9-63.09s2.96-44.69,8.9-62.89c5.93-18.2,14.22-33.5,24.87-45.9,10.65-12.4,23.52-21.7,38.63-27.91,15.1-6.2,31.95-9.3,50.55-9.3s35.45,3.1,50.56,9.3c15.1,6.21,28.04,15.51,38.83,27.91,10.78,12.4,19.07,27.7,24.87,45.9,5.8,18.2,8.69,39.17,8.69,62.89s-2.9,45.03-8.69,63.09c-5.8,18.07-14.09,33.3-24.87,45.7-10.79,12.41-23.73,21.71-38.83,27.91-15.1,6.2-31.95,9.3-50.56,9.3ZM601,244.69c20.22,0,36.33-6.74,48.33-20.22,12-13.48,18-32.36,18-56.62v-43.68c0-24.27-6-43.14-18-56.62-12-13.48-28.11-20.22-48.33-20.22s-36.33,6.74-48.33,20.22c-12,13.49-18,32.36-18,56.62v43.68c0,24.27,6,43.14,18,56.62,12,13.49,28.11,20.22,48.33,20.22Z"/>
  <path class="cls-1" d="M752.67,4.85h102.73c18.33,0,34.98,2.97,49.95,8.9,14.96,5.94,27.77,14.76,38.42,26.49,10.65,11.73,18.87,26.43,24.67,44.08,5.8,17.66,8.69,38.22,8.69,61.68s-2.9,44.02-8.69,61.68c-5.8,17.66-14.02,32.36-24.67,44.08-10.65,11.73-23.46,20.56-38.42,26.49-14.96,5.94-31.62,8.9-49.95,8.9h-102.73V4.85ZM855.4,239.84c19.95,0,35.79-5.86,47.52-17.59,11.73-11.73,17.59-29.72,17.59-53.99v-44.49c0-24.27-5.86-42.27-17.59-53.99-11.73-11.73-27.57-17.59-47.52-17.59h-49.34v187.66h49.34Z"/>
  <path class="cls-1" d="M749.92,375.8c47.21-44.06,122.82-60.66,170.67-33.83,7.29,4.08,30.51,17.1,31.58,37.59.61,11.63-5.96,25.01-16.6,31.37-24.62,14.72-54.7-17.94-96.78-25.64-26.87-4.91-68.17-1.38-126.46,43.13,6.52-14.25,17.9-34.25,37.59-52.63Z"/>
</svg>