<?xml version="1.0" encoding="UTF-8"?>
<svg id="Layer_1" xmlns="http://www.w3.org/2000/svg" version="1.1" viewBox="0 0 1080 1080">
  <!-- Generator: Adobe Illustrator 29.1.0, SVG Export Plug-In . SVG Version: 2.1.0 Build 142)  -->
  <defs>
    <style>
      .st0 {
        fill: #f4f4f4;
      }
    </style>
  </defs>
  <g>
    <path class="st0" d="M61.8,500.4h199.7c17.7,0,33.7,2.7,47.9,8,14.2,5.4,26.3,12.8,36.2,22.3,9.9,9.5,17.4,21.1,22.6,34.9,5.2,13.8,7.7,29,7.7,45.5s-2.2,30.4-6.5,41.7c-4.3,11.3-10.1,20.7-17.3,28.1-7.2,7.4-15.5,13-24.7,16.7-9.3,3.7-18.9,5.8-28.8,6.2v3.7c9.5,0,19.7,1.9,30.6,5.6,10.9,3.7,21,9.6,30.3,17.6,9.3,8,17,18.3,23.2,30.9,6.2,12.6,9.3,28.1,9.3,46.7s-2.8,33.5-8.3,48.5c-5.6,15.1-13.3,28.1-23.2,39.3-9.9,11.1-21.6,19.9-35.2,26.3-13.6,6.4-28.4,9.6-44.5,9.6H61.8v-431.6ZM143.4,680.3h100.8c14.8,0,26.4-4,34.6-12.1,8.2-8,12.4-19.3,12.4-33.7v-19.2c0-14.4-4.1-25.7-12.4-33.7-8.3-8-19.8-12.1-34.6-12.1h-100.8v110.7ZM143.4,862.7h113.8c15.7,0,27.8-4,36.5-12.1,8.7-8,13-19.7,13-34.9v-21c0-15.2-4.3-27-13-35.2-8.7-8.2-20.8-12.4-36.5-12.4h-113.8v115.6Z"/>
    <path class="st0" d="M467.5,562.2c-16.5,0-28.3-3.7-35.6-11.1-7.2-7.4-10.8-16.9-10.8-28.4v-12.4c0-11.5,3.6-21,10.8-28.4,7.2-7.4,19.1-11.1,35.6-11.1s27.8,3.7,35.2,11.1c7.4,7.4,11.1,16.9,11.1,28.4v12.4c0,11.5-3.7,21-11.1,28.4-7.4,7.4-19.2,11.1-35.2,11.1ZM427.9,609.2h79.2v322.8h-79.2v-322.8Z"/>
    <path class="st0" d="M660.4,932c-27.2,0-47.9-7.1-62.1-21.3-14.2-14.2-21.3-34.4-21.3-60.8v-177.1h-47.6v-63.7h24.7c12,0,20.1-2.8,24.4-8.3,4.3-5.6,6.5-13.9,6.5-25v-55h71.1v88.4h66.2v63.7h-66.2v195.4h61.2v63.7h-56.9Z"/>
    <path class="st0" d="M879.9,939.4c-23.9,0-45.2-4-64-12.1-18.8-8-34.6-19.4-47.6-34-13-14.6-23-32.4-30-53.2-7-20.8-10.5-44.2-10.5-70.2s3.4-48.6,10.2-69.3c6.8-20.6,16.6-38.2,29.4-52.9,12.8-14.6,28.4-26,47-34,18.6-8,39.6-12.1,63.1-12.1s47,4.3,65.6,13c18.6,8.7,33.8,20.4,45.8,35.2,12,14.8,20.9,32.1,26.9,51.6,6,19.6,9,40.5,9,62.8v26h-214.6v8c0,23.3,6.6,42.1,19.8,56.2,13.2,14.1,32.8,21.2,58.7,21.2s36-4.1,48.5-12.3c12.6-8.2,23.8-18.6,33.7-31.3l42.7,47.8c-13.2,18.6-31.2,33.2-54.1,43.7-22.9,10.5-49.4,15.8-79.5,15.8ZM878.7,661.2c-21,0-37.7,7-50.1,21-12.4,14-18.6,32.2-18.6,54.4v4.9h132.3v-5.6c0-22.3-5.5-40.3-16.4-54.1-10.9-13.8-26.7-20.7-47.3-20.7Z"/>
  </g>
  <g>
    <path class="st0" d="M273.3,448.7H61.8v-47.7l146-187.3H69.1v-47.3h200.2v47.7l-146.4,187.3h150.5v47.3Z"/>
    <path class="st0" d="M400.3,453.5c-18.6,0-35.5-3.1-50.6-9.3-15.1-6.2-28-15.5-38.6-27.9-10.7-12.4-18.9-27.6-24.9-45.7-5.9-18.1-8.9-39.1-8.9-63.1s3-44.7,8.9-62.9c5.9-18.2,14.2-33.5,24.9-45.9,10.7-12.4,23.5-21.7,38.6-27.9,15.1-6.2,32-9.3,50.6-9.3s35.5,3.1,50.6,9.3c15.1,6.2,28,15.5,38.8,27.9,10.8,12.4,19.1,27.7,24.9,45.9,5.8,18.2,8.7,39.2,8.7,62.9s-2.9,45-8.7,63.1c-5.8,18.1-14.1,33.3-24.9,45.7-10.8,12.4-23.7,21.7-38.8,27.9-15.1,6.2-32,9.3-50.6,9.3ZM400.3,406.2c20.2,0,36.3-6.7,48.3-20.2,12-13.5,18-32.4,18-56.6v-43.7c0-24.3-6-43.1-18-56.6-12-13.5-28.1-20.2-48.3-20.2s-36.3,6.7-48.3,20.2c-12,13.5-18,32.4-18,56.6v43.7c0,24.3,6,43.1,18,56.6,12,13.5,28.1,20.2,48.3,20.2Z"/>
    <path class="st0" d="M662.8,453.5c-18.6,0-35.5-3.1-50.6-9.3-15.1-6.2-28-15.5-38.6-27.9-10.7-12.4-18.9-27.6-24.9-45.7-5.9-18.1-8.9-39.1-8.9-63.1s3-44.7,8.9-62.9c5.9-18.2,14.2-33.5,24.9-45.9,10.7-12.4,23.5-21.7,38.6-27.9,15.1-6.2,32-9.3,50.6-9.3s35.5,3.1,50.6,9.3c15.1,6.2,28,15.5,38.8,27.9,10.8,12.4,19.1,27.7,24.9,45.9,5.8,18.2,8.7,39.2,8.7,62.9s-2.9,45-8.7,63.1c-5.8,18.1-14.1,33.3-24.9,45.7-10.8,12.4-23.7,21.7-38.8,27.9-15.1,6.2-32,9.3-50.6,9.3ZM662.8,406.2c20.2,0,36.3-6.7,48.3-20.2,12-13.5,18-32.4,18-56.6v-43.7c0-24.3-6-43.1-18-56.6-12-13.5-28.1-20.2-48.3-20.2s-36.3,6.7-48.3,20.2c-12,13.5-18,32.4-18,56.6v43.7c0,24.3,6,43.1,18,56.6,12,13.5,28.1,20.2,48.3,20.2Z"/>
    <path class="st0" d="M814.5,166.4h102.7c18.3,0,35,3,49.9,8.9,15,5.9,27.8,14.8,38.4,26.5,10.6,11.7,18.9,26.4,24.7,44.1,5.8,17.7,8.7,38.2,8.7,61.7s-2.9,44-8.7,61.7c-5.8,17.7-14,32.4-24.7,44.1-10.7,11.7-23.5,20.6-38.4,26.5-15,5.9-31.6,8.9-49.9,8.9h-102.7V166.4ZM917.2,401.3c20,0,35.8-5.9,47.5-17.6,11.7-11.7,17.6-29.7,17.6-54v-44.5c0-24.3-5.9-42.3-17.6-54-11.7-11.7-27.6-17.6-47.5-17.6h-49.3v187.7h49.3Z"/>
  </g>
  <path class="st0" d="M811.7,537.3c47.2-44.1,122.8-60.7,170.7-33.8,7.3,4.1,30.5,17.1,31.6,37.6.6,11.6-6,25-16.6,31.4-24.6,14.7-54.7-17.9-96.8-25.6-26.9-4.9-68.2-1.4-126.5,43.1,6.5-14.2,17.9-34.3,37.6-52.6Z"/>
</svg>